# xmcd
#
# Track frame offsets:
# 150
# 18277
# 33857
# 48653
# 62581
# 79566
# 93530
# 107413
# 121490
# 134539
# 150787
# 163408
# 176459
# 189408
# 207476
# 223060
# 235115
# 246081
# 259755
# 276044
#
# Disc length: 3873 seconds
#
#
# Revision: 1
# Processed by: cddbd v1.5.1PL2 Copyright (c) Steve Scherf et al.
# Submitted via: FreeRIP 2.945 
#
DISCID=0f0f1f14
DTITLE=Varios - Sertanejao 2004
DYEAR=2004
DGENRE=Country
TTITLE0=Uma Noite - Ana Paula e Bruno e Marrone
TTITLE1=Filezinho - Kadu e Kamilinho
TTITLE2=Fogo no Faxo - Chanceller e Montenegro
TTITLE3=So Voce - Gino e Geno
TTITLE4=Um Degrau na Escada - Chico Rey e Parana
TTITLE5=Aguas da Minha Saudade -  Di Paula e Paulino
TTITLE6=Alo Mulherada - Teodoro e Sampaio
TTITLE7=Cara de Boi - Gino e Geno
TTITLE8=Nois e Simprao de Tudo - Felipe e Falcao
TTITLE9=Casal Nota Mil - Chico Rey e Parana
TTITLE10=E Mentira Dela - Teodoro e Sampaio
TTITLE11=Cem Reais - Felipe e Falcao
TTITLE12=Senti Firmeza - Chanceller e Montenegro
TTITLE13=Trovejou Mas Nao Choveu - Marcelinho Di Lima e Gino e Geno
TTITLE14=Quem Bate Apanha - Chanceller e Montenegro e Marco Brasil
TTITLE15=Nao Brinque com a Paixao - Di Paula e Paulino
TTITLE16=Parei de Beber So To Comendo - Kadu e Kamilinho
TTITLE17=O Karate - Felipe e Falcao
TTITLE18=De Carona Com a Saudade - Chico Rey e Parana
TTITLE19=Hoje Tem Show de Bola - Felipe e Falcao
EXTD=YEAR: 2004
EXTT0=
EXTT1=
EXTT2=
EXTT3=
EXTT4=
EXTT5=
EXTT6=
EXTT7=
EXTT8=
EXTT9=
EXTT10=
EXTT11=
EXTT12=
EXTT13=
EXTT14=
EXTT15=
EXTT16=
EXTT17=
EXTT18=
EXTT19=
PLAYORDER=
